HIERARCHY
ROOT Hips
{
	OFFSET 0.000000 121.760803 0.000000
	CHANNELS 6 Xposition Yposition Zposition Xrotation Yrotation Zrotation 
	JOINT Spine
	{
		OFFSET 0.072000 7.257294 -0.789700
		CHANNELS 3 Xrotation Yrotation Zrotation
		JOINT Spine1
		{
			OFFSET 0.000000 12.508769 -0.658067
			CHANNELS 3 Xrotation Yrotation Zrotation
			JOINT Spine1_split
			{
				OFFSET 0.000000 12.508769 -0.658067
				CHANNELS 3 Xrotation Yrotation Zrotation
				JOINT Spine2
				{
					OFFSET 0.000000 12.508769 -0.658067
					CHANNELS 3 Xrotation Yrotation Zrotation
					JOINT Neck
					{
						OFFSET 0.000000 14.033295 7.520400
						CHANNELS 3 Xrotation Yrotation Zrotation
						JOINT Head
						{
							OFFSET 0.000000 8.198502 5.703100
							CHANNELS 3 Xrotation Yrotation Zrotation
							JOINT HeadTop_End
							{
								OFFSET 0.000000 17.760803 13.332701
								CHANNELS 3 Xrotation Yrotation Zrotation
								End Site
								{
									OFFSET 0.000000 0.000000 0.000000
								}
							}
						}
					}
					JOINT LeftShoulder
					{
						OFFSET 6.292450 5.785301 -0.669000
						CHANNELS 3 Xrotation Yrotation Zrotation
						JOINT LeftShoulder_split
						{
							OFFSET 6.292450 5.785301 -0.669000
							CHANNELS 3 Xrotation Yrotation Zrotation
							JOINT LeftArm
							{
								OFFSET 13.907140 -6.093903 1.965100
								CHANNELS 3 Xrotation Yrotation Zrotation
								JOINT LeftForeArm
								{
									OFFSET 34.140198 0.000000 0.000000
									CHANNELS 3 Xrotation Yrotation Zrotation
									JOINT LeftHand
									{
										OFFSET 40.960209 0.000000 0.000000
										CHANNELS 3 Xrotation Yrotation Zrotation
										JOINT LeftHandThumb1
										{
											OFFSET 10.006996 -7.170425 9.573125
											CHANNELS 3 Xrotation Yrotation Zrotation
											JOINT LeftHandThumb2
											{
												OFFSET 1.835007 -1.059448 1.059443
												CHANNELS 3 Xrotation Yrotation Zrotation
												JOINT LeftHandThumb3
												{
													OFFSET 2.112267 -1.219513 1.219518
													CHANNELS 3 Xrotation Yrotation Zrotation
													JOINT LeftHandThumb4
													{
														OFFSET 4.843811 -2.796570 2.796576
														CHANNELS 3 Xrotation Yrotation Zrotation
														End Site
														{
															OFFSET 0.000000 0.000000 0.000000
														}
													}
												}
											}
										}
										JOINT LeftHandIndex1
										{
											OFFSET 18.389847 -0.922348 4.596882
											CHANNELS 3 Xrotation Yrotation Zrotation
											JOINT LeftHandIndex2
											{
												OFFSET 4.711273 0.000000 0.000000
												CHANNELS 3 Xrotation Yrotation Zrotation
												JOINT LeftHandIndex3
												{
													OFFSET 2.886131 0.000000 0.000000
													CHANNELS 3 Xrotation Yrotation Zrotation
													JOINT LeftHandIndex4
													{
														OFFSET 6.145912 0.000000 0.000000
														CHANNELS 3 Xrotation Yrotation Zrotation
														End Site
														{
															OFFSET 0.000000 0.000000 0.000000
														}
													}
												}
											}
										}
										JOINT LeftHandMiddle1
										{
											OFFSET 18.013008 0.000000 0.000000
											CHANNELS 3 Xrotation Yrotation Zrotation
											JOINT LeftHandMiddle2
											{
												OFFSET 4.946693 0.000000 0.000000
												CHANNELS 3 Xrotation Yrotation Zrotation
												JOINT LeftHandMiddle3
												{
													OFFSET 3.342232 0.000000 0.000000
													CHANNELS 3 Xrotation Yrotation Zrotation
													JOINT LeftHandMiddle4
													{
														OFFSET 4.461754 0.000000 0.000000
														CHANNELS 3 Xrotation Yrotation Zrotation
														End Site
														{
															OFFSET 0.000000 0.000000 0.000000
														}
													}
												}
											}
										}
										JOINT LeftHandRing1
										{
											OFFSET 15.849892 -0.102921 -4.126150
											CHANNELS 3 Xrotation Yrotation Zrotation
											JOINT LeftHandRing2
											{
												OFFSET 3.527054 0.000000 0.000000
												CHANNELS 3 Xrotation Yrotation Zrotation
												JOINT LeftHandRing3
												{
													OFFSET 2.961098 0.000000 0.000000
													CHANNELS 3 Xrotation Yrotation Zrotation
													JOINT LeftHandRing4
													{
														OFFSET 4.927200 0.000000 0.000000
														CHANNELS 3 Xrotation Yrotation Zrotation
														End Site
														{
															OFFSET 0.000000 0.000000 0.000000
														}
													}
												}
											}
										}
										JOINT LeftHandPinky1
										{
											OFFSET 12.791824 -0.832031 -6.799156
											CHANNELS 3 Xrotation Yrotation Zrotation
											JOINT LeftHandPinky2
											{
												OFFSET 3.327133 0.000000 0.000000
												CHANNELS 3 Xrotation Yrotation Zrotation
												JOINT LeftHandPinky3
												{
													OFFSET 3.014900 0.000000 0.000000
													CHANNELS 3 Xrotation Yrotation Zrotation
													JOINT LeftHandPinky4
													{
														OFFSET 5.847786 0.000000 0.000000
														CHANNELS 3 Xrotation Yrotation Zrotation
														End Site
														{
															OFFSET 0.000000 0.000000 0.000000
														}
													}
												}
											}
										}
									}
								}
							}
						}
					}
					JOINT RightShoulder
					{
						OFFSET -6.292450 5.785301 -0.669000
						CHANNELS 3 Xrotation Yrotation Zrotation
						JOINT RightShoulder_split
						{
							OFFSET -6.292450 5.785301 -0.669000
							CHANNELS 3 Xrotation Yrotation Zrotation
							JOINT RightArm
							{
								OFFSET -13.907140 -6.093903 1.965100
								CHANNELS 3 Xrotation Yrotation Zrotation
								JOINT RightForeArm
								{
									OFFSET -34.140198 0.000000 0.000000
									CHANNELS 3 Xrotation Yrotation Zrotation
									JOINT RightHand
									{
										OFFSET -40.960209 0.000000 0.000000
										CHANNELS 3 Xrotation Yrotation Zrotation
										JOINT RightHandThumb1
										{
											OFFSET -10.007050 -7.170456 9.573117
											CHANNELS 3 Xrotation Yrotation Zrotation
											JOINT RightHandThumb2
											{
												OFFSET -1.835007 -1.059448 1.059443
												CHANNELS 3 Xrotation Yrotation Zrotation
												JOINT RightHandThumb3
												{
													OFFSET -2.112267 -1.219513 1.219518
													CHANNELS 3 Xrotation Yrotation Zrotation
													JOINT RightHandThumb4
													{
														OFFSET -4.843834 -2.796585 2.796590
														CHANNELS 3 Xrotation Yrotation Zrotation
														End Site
														{
															OFFSET 0.000000 0.000000 0.000000
														}
													}
												}
											}
										}
										JOINT RightHandIndex1
										{
											OFFSET -18.389870 -0.922424 4.596786
											CHANNELS 3 Xrotation Yrotation Zrotation
											JOINT RightHandIndex2
											{
												OFFSET -4.711273 0.000000 0.000000
												CHANNELS 3 Xrotation Yrotation Zrotation
												JOINT RightHandIndex3
												{
													OFFSET -2.886131 0.000000 0.000000
													CHANNELS 3 Xrotation Yrotation Zrotation
													JOINT RightHandIndex4
													{
														OFFSET -6.145920 0.000000 0.000000
														CHANNELS 3 Xrotation Yrotation Zrotation
														End Site
														{
															OFFSET 0.000000 0.000000 0.000000
														}
													}
												}
											}
										}
										JOINT RightHandMiddle1
										{
											OFFSET -18.013008 0.000000 0.000000
											CHANNELS 3 Xrotation Yrotation Zrotation
											JOINT RightHandMiddle2
											{
												OFFSET -4.946693 0.000000 0.000000
												CHANNELS 3 Xrotation Yrotation Zrotation
												JOINT RightHandMiddle3
												{
													OFFSET -3.342232 0.000000 0.000000
													CHANNELS 3 Xrotation Yrotation Zrotation
													JOINT RightHandMiddle4
													{
														OFFSET -4.461754 0.000000 0.000000
														CHANNELS 3 Xrotation Yrotation Zrotation
														End Site
														{
															OFFSET 0.000000 0.000000 0.000000
														}
													}
												}
											}
										}
										JOINT RightHandRing1
										{
											OFFSET -15.849876 -0.102936 -4.126237
											CHANNELS 3 Xrotation Yrotation Zrotation
											JOINT RightHandRing2
											{
												OFFSET -3.527054 0.000000 0.000000
												CHANNELS 3 Xrotation Yrotation Zrotation
												JOINT RightHandRing3
												{
													OFFSET -2.961098 0.000000 0.000000
													CHANNELS 3 Xrotation Yrotation Zrotation
													JOINT RightHandRing4
													{
														OFFSET -4.927200 0.000000 0.000000
														CHANNELS 3 Xrotation Yrotation Zrotation
														End Site
														{
															OFFSET 0.000000 0.000000 0.000000
														}
													}
												}
											}
										}
										JOINT RightHandPinky1
										{
											OFFSET -12.791786 -0.832077 -6.799222
											CHANNELS 3 Xrotation Yrotation Zrotation
											JOINT RightHandPinky2
											{
												OFFSET -3.327133 0.000000 0.000000
												CHANNELS 3 Xrotation Yrotation Zrotation
												JOINT RightHandPinky3
												{
													OFFSET -3.014900 0.000000 0.000000
													CHANNELS 3 Xrotation Yrotation Zrotation
													JOINT RightHandPinky4
													{
														OFFSET -5.847786 0.000000 0.000000
														CHANNELS 3 Xrotation Yrotation Zrotation
														End Site
														{
															OFFSET 0.000000 0.000000 0.000000
														}
													}
												}
											}
										}
									}
								}
							}
						}
					}
				}
			}
		}
	}
	JOINT LeftUpLeg
	{
		OFFSET 13.026900 -6.336304 -1.092800
		CHANNELS 3 Xrotation Yrotation Zrotation
		JOINT LeftLeg
		{
			OFFSET 0.524474 -46.096886 9.782700
			CHANNELS 3 Xrotation Yrotation Zrotation
			JOINT LeftFoot
			{
				OFFSET -0.524474 -53.427422 -12.948200
				CHANNELS 3 Xrotation Yrotation Zrotation
				JOINT LeftToeBase
				{
					OFFSET 0.192200 -14.009700 16.364100
					CHANNELS 3 Xrotation Yrotation Zrotation
					JOINT LeftToe_End
					{
						OFFSET -1.784700 -0.561700 9.474800
						CHANNELS 3 Xrotation Yrotation Zrotation
						End Site
						{
							OFFSET 0.000000 0.000000 0.000000
						}
					}
				}
			}
		}
	}
	JOINT RightUpLeg
	{
		OFFSET -12.883000 -6.336304 -1.092800
		CHANNELS 3 Xrotation Yrotation Zrotation
		JOINT RightLeg
		{
			OFFSET -0.524587 -46.096825 9.782800
			CHANNELS 3 Xrotation Yrotation Zrotation
			JOINT RightFoot
			{
				OFFSET 0.524587 -53.427383 -12.948300
				CHANNELS 3 Xrotation Yrotation Zrotation
				JOINT RightToeBase
				{
					OFFSET -0.192200 -14.009700 16.364100
					CHANNELS 3 Xrotation Yrotation Zrotation
					JOINT RightToe_End
					{
						OFFSET 1.784700 -0.561700 9.474800
						CHANNELS 3 Xrotation Yrotation Zrotation
						End Site
						{
							OFFSET 0.000000 0.000000 0.000000
						}
					}
				}
			}
		}
	}
}
MOTION
Frames: 4
Frame Time: 0.016667
4.464212 10.511757 6.428299 87.460101 0.090684 1.357106 3.816403 0.564452 -1.421019 0.793247 0.138199 -0.141419 0.000000 0.000000 0.000000 0.792545 0.141294 -0.141442 -5.136620 -13.863060 6.464564 -18.401138 -57.030997 -18.459169 -0.000001 0.000001 -0.000000 3.766320 -21.296513 -1.256997 0.000000 0.000000 0.000000 15.600388 -18.626727 -61.954453 0.000011 -18.654952 0.000008 42.089036 7.016514 -15.751000 -1.540039 3.690183 6.142355 3.939052 7.948722 0.746810 -0.579466 1.574988 2.538717 0.000000 -0.000000 -0.000001 0.298627 2.009578 -16.903098 0.539681 2.676807 -22.793545 0.036389 0.708417 -5.880812 -0.000002 0.000000 -0.000002 0.298067 2.007743 -16.887103 0.540434 2.678582 -22.809560 0.036382 0.708405 -5.880819 -0.000002 -0.000001 -0.000002 0.298629 2.009602 -16.903098 0.539683 2.676781 -22.793555 0.036387 0.708419 -5.880819 -0.000002 -0.000001 -0.000002 1.465418 5.893268 -16.473129 0.545003 -1.382203 -23.265299 0.036395 0.708423 -5.880807 -0.000000 0.000001 0.000001 0.640288 15.700658 9.197080 0.000000 0.000000 0.000000 13.898637 -3.320475 53.523497 0.000003 31.875315 -0.000002 15.264766 -23.834162 10.590698 -1.849244 -3.581795 -6.586132 4.637193 -8.634121 -0.225412 -1.273757 0.137318 -2.094862 0.000002 0.000000 0.000003 0.480687 -2.544863 21.389427 1.003304 -3.603125 31.111303 0.099713 -1.175695 9.694897 -0.000002 0.000002 -0.000002 0.480693 -2.544870 21.389424 1.003303 -3.603111 31.111303 0.099717 -1.175696 9.694911 -0.000000 0.000001 -0.000001 0.480698 -2.544866 21.389427 1.003301 -3.603116 31.111300 0.099715 -1.175696 9.694903 0.000004 -0.000001 -0.000001 0.480692 -2.544863 21.389426 1.003309 -3.603114 31.111300 0.099711 -1.175696 9.694893 -0.000000 -0.000001 -0.000005 -11.488812 6.674644 9.288773 16.514503 10.112229 1.532208 45.073617 27.876299 -18.786529 3.735894 0.280657 4.664092 0.000004 0.000001 -0.000001 -12.281177 -7.628006 -12.082288 18.583294 -9.156938 -0.184810 43.859821 -27.732393 28.169969 13.098544 -1.723604 -10.859619 0.000001 0.000000 -0.000002 
4.464056 10.513588 6.427895 87.450641 0.094331 1.356611 3.824955 0.561609 -1.419508 0.795020 0.137604 -0.141028 0.000000 0.000000 0.000000 0.794336 0.140705 -0.141052 -5.134276 -13.862903 6.460974 -18.393401 -57.036430 -18.452441 -0.000000 -0.000002 -0.000000 3.774316 -21.342084 -1.254776 0.000000 0.000000 0.000000 15.591964 -18.591054 -61.965286 0.000004 -18.641598 0.000009 42.085495 7.002017 -15.750930 -1.540039 3.690179 6.142355 3.939052 7.948681 0.746809 -0.579467 1.575005 2.538716 -0.000000 0.000001 -0.000000 0.298632 2.009591 -16.903098 0.539674 2.676791 -22.793550 0.036380 0.708413 -5.880825 0.000001 -0.000000 0.000001 0.298070 2.007732 -16.887098 0.540414 2.678591 -22.809572 0.036390 0.708406 -5.880798 0.000001 -0.000000 -0.000003 0.298633 2.009589 -16.903099 0.539670 2.676810 -22.793548 0.036389 0.708388 -5.880808 -0.000000 -0.000001 -0.000000 1.465417 5.893268 -16.473130 0.545013 -1.382170 -23.265299 0.036387 0.708403 -5.880808 -0.000002 0.000000 0.000001 0.641024 15.689949 9.189849 0.000000 0.000000 0.000000 13.871879 -3.307267 53.531550 0.000005 31.852078 -0.000012 15.245640 -23.874477 10.516435 -1.849256 -3.581798 -6.586148 4.637194 -8.634139 -0.225406 -1.273755 0.137311 -2.094867 -0.000002 0.000000 0.000001 0.480695 -2.544885 21.389400 1.003308 -3.603110 31.111297 0.099711 -1.175699 9.694918 0.000001 0.000001 -0.000002 0.480693 -2.544885 21.389398 1.003309 -3.603105 31.111307 0.099704 -1.175697 9.694897 0.000001 -0.000003 0.000000 0.480690 -2.544889 21.389396 1.003311 -3.603113 31.111307 0.099711 -1.175697 9.694893 -0.000000 0.000003 -0.000001 0.480695 -2.544894 21.389390 1.003307 -3.603107 31.111297 0.099721 -1.175690 9.694905 -0.000001 0.000003 -0.000006 -11.484697 6.679647 9.292950 16.521242 10.112397 1.530523 45.063191 27.885900 -18.807802 3.764264 0.283974 4.690792 0.000003 -0.000003 0.000000 -12.273878 -7.630551 -12.083101 18.584035 -9.157285 -0.181053 43.869342 -27.732547 28.150353 13.067433 -1.716853 -10.840694 -0.000003 0.000003 -0.000003 
4.463099 10.516884 6.427635 87.458353 0.098922 1.362597 3.815383 0.557768 -1.422133 0.792723 0.136766 -0.140974 0.000000 0.000000 0.000000 0.792048 0.139859 -0.141001 -5.125216 -13.862458 6.457382 -18.396665 -57.041679 -18.453995 -0.000000 0.000001 0.000000 3.780981 -21.376645 -1.256569 0.000000 0.000000 0.000000 15.556881 -18.576986 -61.979691 -0.000006 -18.573193 -0.000004 42.065199 6.975425 -15.756067 -1.540038 3.690185 6.142356 3.939053 7.948701 0.746810 -0.579466 1.575006 2.538716 -0.000000 -0.000003 -0.000000 0.298627 2.009583 -16.903103 0.539672 2.676788 -22.793555 0.036387 0.708413 -5.880816 -0.000001 0.000000 0.000002 0.298073 2.007733 -16.887103 0.540422 2.678566 -22.809581 0.036386 0.708407 -5.880816 -0.000001 0.000002 -0.000002 0.298628 2.009583 -16.903105 0.539678 2.676793 -22.793545 0.036386 0.708416 -5.880818 -0.000001 0.000000 -0.000003 1.465419 5.893257 -16.473129 0.545014 -1.382178 -23.265306 0.036393 0.708398 -5.880812 -0.000003 -0.000001 0.000001 0.640460 15.698719 9.195481 0.000000 0.000000 0.000000 13.865608 -3.329053 53.534924 0.000020 31.844015 0.000001 15.261206 -23.895929 10.436521 -1.849243 -3.581783 -6.586137 4.637188 -8.634148 -0.225413 -1.273770 0.137318 -2.094863 0.000001 -0.000000 -0.000001 0.480691 -2.544882 21.389400 1.003319 -3.603119 31.111320 0.099706 -1.175698 9.694898 0.000001 0.000001 -0.000001 0.480694 -2.544884 21.389402 1.003314 -3.603113 31.111320 0.099711 -1.175703 9.694898 -0.000000 0.000001 -0.000003 0.480700 -2.544880 21.389400 1.003300 -3.603130 31.111320 0.099714 -1.175696 9.694904 -0.000001 -0.000000 0.000002 0.480696 -2.544881 21.389405 1.003313 -3.603117 31.111324 0.099710 -1.175706 9.694887 0.000002 -0.000002 -0.000000 -11.493282 6.674847 9.281914 16.520322 10.112056 1.540817 45.060158 27.900078 -18.852034 3.805778 0.288576 4.727515 0.000002 0.000001 -0.000003 -12.287088 -7.631554 -12.092423 18.592274 -9.156689 -0.178654 43.865626 -27.730858 28.169958 13.100123 -1.720141 -10.848420 0.000001 0.000002 -0.000006 
4.461787 10.520851 6.426796 87.469684 0.101247 1.369322 3.803775 0.555098 -1.424294 0.789975 0.136171 -0.140839 0.000000 0.000000 0.000000 0.789274 0.139252 -0.140869 -5.121390 -13.861865 6.453985 -18.401131 -57.042233 -18.461740 0.000000 0.000000 0.000000 3.780671 -21.372237 -1.259639 0.000000 0.000000 0.000000 15.494904 -18.603308 -61.991760 0.000003 -18.436576 0.000008 42.055555 6.923404 -15.795205 -1.540037 3.690157 6.142355 3.939053 7.948716 0.746810 -0.579468 1.575004 2.538716 -0.000000 -0.000001 -0.000000 0.298627 2.009561 -16.903106 0.539675 2.676797 -22.793555 0.036388 0.708443 -5.880817 -0.000000 -0.000000 0.000003 0.298072 2.007742 -16.887100 0.540428 2.678569 -22.809579 0.036398 0.708414 -5.880818 -0.000002 -0.000001 0.000001 0.298627 2.009562 -16.903111 0.539670 2.676807 -22.793552 0.036392 0.708430 -5.880818 0.000001 -0.000000 -0.000002 1.465422 5.893243 -16.473129 0.545007 -1.382190 -23.265306 0.036385 0.708434 -5.880812 0.000001 0.000001 0.000000 0.640993 15.712338 9.191115 0.000000 0.000000 0.000000 13.846812 -3.359459 53.548816 0.000017 31.824481 0.000005 15.286119 -23.918033 10.367435 -1.849254 -3.581799 -6.586132 4.637199 -8.634133 -0.225407 -1.273770 0.137308 -2.094879 -0.000000 -0.000001 0.000001 0.480680 -2.544874 21.389412 1.003318 -3.603110 31.111314 0.099693 -1.175696 9.694899 0.000002 0.000003 -0.000002 0.480682 -2.544875 21.389414 1.003311 -3.603112 31.111314 0.099690 -1.175702 9.694885 0.000001 0.000001 -0.000000 0.480684 -2.544867 21.389419 1.003300 -3.603122 31.111303 0.099688 -1.175709 9.694888 0.000002 -0.000001 -0.000000 0.480684 -2.544869 21.389420 1.003300 -3.603111 31.111314 0.099702 -1.175715 9.694881 -0.000000 -0.000001 -0.000001 -11.503513 6.666391 9.266783 16.514605 10.111590 1.553739 45.066302 27.908786 -18.874383 3.820994 0.290136 4.739610 0.000003 0.000001 -0.000001 -12.303926 -7.631062 -12.100976 18.602567 -9.155390 -0.180636 43.847601 -27.728562 28.222014 13.198184 -1.736332 -10.891689 -0.000001 0.000001 0.000000 
